<?xml version="1.0" standalone="no"?>
<!DOCTYPE svg PUBLIC "-//W3C//DTD SVG 20010904//EN"
 "http://www.w3.org/TR/2001/REC-SVG-20010904/DTD/svg10.dtd">
<svg version="1.0" xmlns="http://www.w3.org/2000/svg"
 width="400.000000pt" height="400.000000pt" viewBox="0 0 400.000000 400.000000"
 preserveAspectRatio="xMidYMid meet">

<g transform="translate(0.000000,400.000000) scale(0.100000,-0.100000)"
fill="#000000" stroke="none">
<path d="M2 2328 l3 -1672 35 -11 c19 -6 49 -18 67 -28 33 -18 78 -23 69 -9
-5 8 91 -8 141 -23 39 -12 25 -27 -19 -22 -24 2 -50 7 -58 9 -8 3 -12 3 -8 1
5 -3 3 -14 -3 -25 -12 -22 1 -38 32 -38 9 0 22 -7 29 -15 7 -9 28 -15 49 -14
32 0 33 1 14 9 -28 11 -30 30 -4 30 34 0 51 -12 51 -34 0 -20 6 -22 64 -24 58
-2 65 0 71 18 5 16 -2 30 -29 56 -19 19 -40 34 -46 34 -5 0 -10 4 -10 9 0 5
-8 7 -19 4 -12 -3 -20 2 -23 14 -3 13 -22 22 -63 31 -60 14 -97 39 -189 128
-24 23 -55 50 -70 59 -15 10 -25 19 -23 21 5 5 69 -17 84 -29 7 -5 31 -11 52
-12 33 -3 39 0 34 12 -4 11 6 8 33 -11 21 -14 47 -26 57 -26 9 0 45 -14 79
-31 127 -64 688 -187 688 -150 0 6 -9 12 -20 12 -11 1 -24 3 -30 4 -5 1 -15 3
-21 4 -6 0 -9 8 -5 16 4 12 -3 15 -29 15 -34 0 -155 70 -155 90 0 12 -77 34
-110 32 -25 -2 -25 -2 -3 9 18 10 20 15 11 34 -13 29 -51 49 -78 42 -15 -4
-20 -2 -17 7 5 11 -65 56 -86 56 -3 0 -26 14 -51 31 -36 24 -46 36 -46 58 0
15 -5 32 -11 38 -6 6 -17 22 -23 35 -6 12 -19 23 -28 23 -10 0 -23 6 -30 13
-6 6 -21 12 -33 12 -12 0 -27 6 -33 12 -10 10 -17 10 -32 0 -30 -18 -35 -14
-9 7 20 17 22 22 10 33 -11 10 -14 10 -18 1 -3 -9 -10 -10 -24 -3 -25 14 -25
34 1 27 22 -6 29 18 7 26 -7 3 -1 9 15 15 33 13 44 31 24 37 -9 3 -24 8 -33
11 -31 12 -58 12 -65 0 -5 -8 -8 -7 -8 2 0 6 -7 12 -17 12 -9 0 -31 11 -49 25
-18 14 -41 25 -51 25 -29 0 -29 46 0 55 l22 8 -23 4 c-25 5 -29 30 -8 59 12
15 17 17 27 6 16 -15 55 -16 64 -2 9 15 25 2 18 -15 -3 -8 -1 -15 5 -15 6 0
12 5 14 12 4 12 11 10 57 -17 17 -10 30 -11 43 -4 13 7 25 6 40 -5 20 -14 24
-14 39 0 16 14 19 14 38 -5 12 -12 21 -28 21 -37 0 -8 5 -12 10 -9 6 4 8 10 5
15 -3 6 14 9 39 8 32 -2 51 3 65 16 15 13 24 16 33 9 18 -14 118 -26 118 -15
0 6 -10 12 -22 16 -18 4 -20 8 -11 17 10 10 19 6 41 -18 35 -36 80 -51 88 -28
4 8 11 15 18 15 6 0 17 4 25 9 12 8 12 12 2 25 -11 14 -11 16 3 16 9 0 19 -7
22 -15 4 -8 14 -15 23 -14 10 0 11 2 3 6 -6 2 -9 9 -6 15 4 6 0 14 -7 19 -7 4
-10 12 -5 16 5 4 11 2 13 -4 7 -20 61 -16 59 3 -2 27 23 28 33 2 l10 -23 0 23
c1 19 5 21 27 16 21 -5 25 -4 19 6 -6 10 -2 12 14 7 30 -7 119 14 125 30 3 7
-1 28 -9 47 l-15 35 43 -1 c52 0 157 21 176 36 8 6 24 11 35 11 12 0 25 10 31
23 5 12 16 20 22 17 7 -2 13 0 13 5 0 14 -23 25 -49 21 -16 -2 -22 2 -19 11 7
19 34 21 68 5 17 -9 32 -11 36 -6 11 19 -9 29 -59 29 -48 -1 -54 -3 -77 -36
-37 -53 -66 -84 -78 -84 -6 0 -33 11 -61 25 -27 14 -68 32 -90 40 -38 13 -40
13 -56 -12 -13 -19 -14 -27 -5 -33 8 -5 8 -9 -3 -13 -9 -3 -21 1 -28 9 -11 14
-15 13 -30 -7 l-17 -22 -6 21 c-6 18 -15 22 -52 22 -24 0 -44 5 -44 10 0 18
30 23 56 9 22 -11 27 -11 34 1 7 10 10 11 10 3 0 -7 7 -13 15 -13 22 0 18 27
-6 44 l-21 14 21 21 21 21 -22 11 c-20 11 -20 12 -3 21 12 8 20 7 26 -3 7 -11
12 -12 29 -1 18 11 20 10 20 -9 0 -14 6 -19 18 -17 25 4 42 -10 43 -35 1 -17
2 -18 6 -4 2 9 13 17 22 17 10 0 30 12 44 26 19 19 33 25 49 21 27 -8 58 17
51 42 -2 9 3 23 11 30 9 8 16 9 16 4 0 -6 12 -8 26 -5 25 4 26 3 20 -26 -4
-18 -3 -33 4 -37 5 -3 7 -11 4 -17 -5 -7 -1 -9 9 -5 9 3 19 2 22 -3 10 -16 38
-12 32 4 -3 8 1 17 8 20 18 7 29 -10 13 -20 -8 -5 1 -12 23 -19 18 -7 34 -18
34 -26 0 -24 17 -28 43 -11 26 17 142 34 142 20 0 -4 -14 -23 -31 -43 -23 -26
-27 -35 -15 -35 9 0 25 -9 36 -20 22 -22 41 -17 113 29 42 27 81 35 107 21 36
-19 134 -28 160 -15 14 7 57 18 95 25 39 7 85 21 103 32 18 10 39 18 47 18 7
0 16 7 19 16 3 9 13 14 21 10 8 -3 17 -1 20 5 4 5 25 9 48 9 74 -1 79 0 73 17
-4 9 -1 20 6 25 8 5 0 8 -22 8 -33 1 -34 1 -15 16 13 10 31 13 50 10 21 -4 26
-3 15 3 -11 8 -8 12 15 21 27 11 28 13 13 24 -17 12 -17 14 0 30 10 9 24 16
31 16 6 0 30 9 52 20 39 21 99 36 173 46 21 3 83 26 137 52 92 44 99 49 99 77
1 17 7 47 15 68 11 33 11 38 -1 33 -8 -3 -14 -2 -14 3 0 5 10 11 22 15 16 4
20 8 12 16 -12 12 -64 3 -64 -11 0 -5 -6 -9 -13 -9 -8 0 -12 14 -12 41 0 35 6
46 35 70 19 16 40 29 47 29 7 0 13 6 13 14 0 18 27 29 34 13 2 -7 5 -4 5 6 1
10 6 15 11 12 6 -4 24 1 42 9 42 21 48 20 48 -9 0 -19 -5 -25 -21 -25 -23 0
-98 -49 -99 -64 0 -5 -7 -18 -17 -28 -20 -22 -5 -24 25 -2 13 9 32 14 43 11
10 -3 17 -1 13 4 -3 5 1 9 9 9 8 0 29 3 46 6 25 5 31 3 31 -11 0 -17 8 -17 55
0 16 7 18 6 8 -6 -7 -7 -13 -23 -13 -34 0 -13 -10 -27 -22 -33 -13 -6 -17 -11
-10 -11 6 -1 12 -6 12 -12 0 -5 -4 -8 -9 -4 -6 3 -9 -7 -8 -22 2 -23 -2 -28
-20 -27 -13 0 -23 -3 -23 -8 0 -4 -6 -8 -13 -8 -8 0 -13 -11 -12 -27 0 -23 5
-29 28 -31 15 -2 27 -9 27 -16 0 -12 -54 -36 -82 -36 -13 0 -28 -19 -28 -36 0
-2 14 -4 30 -4 17 0 30 5 30 10 0 6 9 10 20 10 11 0 23 7 26 15 4 8 16 15 28
15 20 -1 20 -2 4 -14 -10 -7 -18 -18 -18 -24 0 -6 -10 -13 -22 -15 -20 -4 -19
-4 5 -6 16 0 27 -7 27 -15 0 -19 -17 -29 -25 -16 -11 17 -27 11 -20 -9 3 -10
-1 -24 -10 -31 -13 -11 -14 -10 -8 6 6 17 5 17 -10 5 -14 -11 -20 -11 -32 -1
-12 10 -20 9 -39 -4 -15 -10 -27 -12 -31 -6 -3 6 -11 10 -16 10 -6 0 -7 -5 -3
-12 5 -7 2 -9 -8 -5 -9 3 -28 -1 -43 -9 -15 -8 -34 -14 -41 -14 -8 0 -14 -5
-14 -11 0 -7 10 -9 25 -5 20 5 27 2 34 -16 10 -27 4 -39 -9 -18 -7 12 -11 12
-25 0 -12 -10 -19 -10 -23 -3 -6 9 -85 19 -102 13 -19 -7 -100 -6 -100 1 0 5
6 9 14 9 8 0 24 9 37 20 l24 20 -30 -6 c-61 -14 -103 -51 -97 -86 2 -13 -1
-16 -13 -12 -14 6 -16 1 -13 -22 3 -25 -1 -29 -32 -35 -23 -5 -40 -3 -54 7
-24 16 -40 18 -31 4 3 -5 1 -10 -4 -10 -6 0 -11 10 -12 23 0 12 -3 17 -5 10
-3 -7 -12 -9 -19 -6 -17 6 -45 -19 -45 -41 0 -9 -3 -15 -7 -15 -5 1 -15 1 -23
0 -12 -1 -11 -4 3 -12 17 -10 16 -12 -8 -34 -15 -12 -23 -25 -17 -28 5 -4 12
-4 15 0 10 9 77 13 77 4 0 -22 -210 -40 -210 -18 0 7 -7 -2 -16 -20 -12 -23
-26 -34 -52 -40 -33 -8 -37 -12 -40 -44 -3 -30 -8 -37 -43 -52 -21 -9 -46 -17
-54 -17 -8 0 -15 -4 -15 -9 0 -5 -10 -13 -22 -17 -30 -9 -78 -43 -78 -55 0 -5
12 -9 28 -9 27 0 27 -1 -10 -22 -20 -11 -38 -28 -41 -37 -3 -13 4 -15 40 -12
34 2 46 8 53 25 4 12 4 26 -2 33 -13 16 0 36 18 29 8 -3 22 -2 32 3 9 5 35 16
57 24 22 8 74 29 116 46 42 16 89 32 104 35 85 16 115 18 115 8 0 -6 -5 -12
-12 -14 -6 -2 -12 -15 -13 -28 -1 -15 -9 -24 -21 -26 -90 -13 -110 -18 -121
-32 -7 -10 -13 -25 -13 -34 0 -12 -5 -15 -17 -11 -17 6 -16 5 0 -12 24 -24 70
-25 134 -2 57 20 152 19 176 -2 11 -8 23 -8 50 4 54 22 64 18 34 -13 -15 -15
-27 -33 -27 -39 0 -17 83 -14 156 6 35 10 64 16 64 14 0 -2 -5 -13 -10 -24 -9
-15 -7 -19 6 -19 10 0 14 -5 10 -15 -3 -9 0 -15 9 -15 8 0 15 -4 15 -10 0 -5
-15 -10 -33 -10 -19 0 -37 -3 -41 -8 -4 -4 -30 -7 -56 -7 -54 -1 -100 -32
-100 -68 0 -17 6 -18 69 -14 38 3 73 7 79 11 5 3 27 8 48 12 22 3 44 9 49 12
6 4 21 8 35 10 28 4 41 19 33 39 -3 7 0 13 7 13 6 0 8 5 5 10 -4 6 11 10 37
10 30 0 39 -3 28 -10 -21 -13 -10 -17 36 -12 24 2 53 14 69 28 16 14 35 22 43
19 21 -8 39 17 32 45 -10 40 43 112 65 88 7 -7 6 -12 -3 -15 -41 -15 -72 -93
-37 -93 8 0 15 9 15 20 0 11 5 20 10 20 6 0 10 8 11 18 0 12 3 10 10 -8 6 -14
13 -20 17 -14 4 5 22 16 40 23 17 8 32 17 32 22 0 5 7 9 16 9 9 0 22 8 29 17
7 9 26 18 41 19 16 1 41 2 55 3 20 1 30 9 39 31 13 32 36 36 34 6 -2 -22 23
-20 31 3 4 13 12 17 25 14 27 -7 25 -22 -4 -33 -30 -11 -37 -22 -25 -40 7 -12
9 -12 9 4 0 12 5 16 16 12 9 -3 18 -6 20 -6 2 0 4 -4 4 -10 0 -5 -6 -10 -13
-10 -8 0 -24 -9 -36 -19 -18 -16 -20 -24 -12 -38 6 -10 11 -12 11 -5 0 7 13
12 31 12 24 0 30 -3 25 -16 -3 -9 -6 -18 -6 -20 0 -10 -29 -3 -34 9 -4 6 -4 2
-2 -10 4 -24 -9 -32 -17 -10 -3 7 -8 5 -13 -8 -10 -27 -26 -36 -41 -23 -10 8
-13 5 -13 -11 0 -12 -7 -24 -15 -27 -8 -4 -15 -14 -15 -23 0 -13 2 -13 9 -2 6
10 17 11 37 6 l29 -7 -25 -10 -25 -10 23 -11 c27 -12 28 -27 3 -34 -11 -3 -22
-11 -25 -19 -4 -11 -2 -12 14 -4 26 14 30 13 31 -7 0 -14 3 -13 11 5 12 25 49
38 70 26 10 -6 10 -4 -1 9 -7 9 -21 17 -30 17 -17 0 -41 18 -41 31 0 4 9 9 19
12 14 3 18 1 14 -9 -4 -11 6 -14 40 -14 25 0 48 -4 51 -9 4 -5 -8 -21 -25 -36
l-32 -26 27 7 c26 6 27 5 15 -14 -7 -11 -22 -20 -33 -19 -91 4 -116 -3 -156
-43 -22 -22 -45 -40 -51 -40 -6 0 -17 -7 -25 -15 -9 -8 -31 -15 -49 -15 -19 0
-38 -6 -42 -12 -18 -29 -42 -41 -57 -29 -9 8 -16 9 -20 2 -6 -9 -30 -8 -91 4
-11 3 -41 25 -67 50 -49 46 -85 62 -115 51 -15 -6 -15 -8 2 -20 17 -12 17 -14
0 -39 -10 -17 -26 -27 -41 -27 -12 0 -26 -5 -29 -10 -14 -23 -27 -9 -22 25 5
32 4 33 -14 22 -10 -6 -19 -19 -19 -28 0 -12 -7 -15 -25 -11 -19 3 -24 1 -20
-11 4 -8 -1 -17 -10 -21 -9 -3 -15 -14 -14 -23 0 -10 1 -42 0 -70 -1 -51 -2
-53 -30 -53 -42 0 -91 -58 -91 -109 0 -48 5 -52 42 -34 23 12 48 14 107 9 237
-21 209 -23 306 25 49 24 104 52 124 63 52 27 189 77 241 87 71 14 78 18 84
45 8 29 55 52 67 32 11 -18 0 -31 -22 -25 -11 3 -17 1 -13 -4 3 -5 -2 -9 -10
-9 -9 0 -13 -6 -10 -14 3 -9 -6 -22 -23 -33 -15 -10 -34 -26 -41 -35 -7 -10
-20 -18 -28 -18 -8 0 -17 -7 -20 -15 -4 -8 -12 -15 -19 -15 -7 0 -18 -13 -24
-30 -5 -16 -15 -30 -21 -30 -19 0 -91 -53 -83 -61 4 -4 28 -4 53 1 34 7 47 6
54 -4 8 -11 20 -10 65 7 31 11 72 23 91 27 19 3 34 12 33 18 -2 7 2 12 7 12 6
0 10 -5 10 -11 0 -8 4 -8 15 1 8 6 20 10 27 7 7 -2 24 2 38 9 14 7 66 32 117
56 l92 43 1 1578 0 1577 -875 0 c-771 0 -875 -2 -875 -15 0 -8 -4 -15 -10 -15
-5 0 -10 7 -10 15 0 13 -32 15 -224 15 -171 0 -225 -3 -229 -12 -2 -7 0 -30 5
-52 8 -37 -7 -100 -22 -91 -4 2 -4 -9 -2 -26 5 -32 3 -32 -49 -20 -40 9 -77
-8 -64 -30 6 -9 1 -10 -17 -6 -19 5 -25 3 -25 -10 0 -23 41 -63 66 -63 21 0
81 -54 81 -73 0 -5 12 -20 26 -32 l25 -22 -33 -25 c-39 -29 -103 -43 -138 -30
-25 10 -50 -4 -50 -28 0 -13 -16 -13 -40 0 -16 8 -18 8 -14 -5 4 -8 2 -15 -4
-15 -5 0 -12 9 -15 19 -3 11 -17 22 -36 26 -17 4 -45 20 -61 37 -20 20 -36 28
-47 23 -10 -3 -14 -3 -10 1 4 4 -3 18 -15 31 -21 23 -21 24 -5 75 9 28 14 55
11 60 -3 4 0 8 5 8 6 0 11 -7 11 -15 0 -34 46 -12 67 32 18 39 9 53 -35 53
-17 0 -22 5 -20 18 2 9 -3 22 -11 28 -13 10 -13 14 2 29 10 9 24 14 32 11 8
-3 15 -1 15 5 0 6 5 7 11 3 8 -4 8 -9 0 -17 -13 -13 -15 -37 -2 -37 5 0 11 9
14 20 3 11 10 20 15 20 6 0 14 -9 17 -20 8 -25 45 -27 46 -2 0 11 2 12 6 4 3
-7 0 -19 -6 -26 -13 -15 0 -23 59 -36 19 -4 42 -11 52 -14 21 -10 37 32 17 46
-10 7 -8 8 7 3 26 -7 39 18 18 35 -8 7 -14 18 -14 24 0 6 7 3 14 -6 12 -17 14
-17 31 2 10 11 13 20 8 20 -14 0 -23 49 -11 56 6 4 5 10 -3 15 -24 15 -36 10
-35 -13 1 -16 -5 -24 -21 -26 -30 -4 -66 16 -59 34 5 12 -105 14 -784 14
l-790 0 2 -1672z m1308 1647 c0 -8 -7 -15 -15 -15 -9 0 -12 6 -9 15 4 8 10 15
15 15 5 0 9 -7 9 -15z m-60 -5 c0 -5 -5 -10 -11 -10 -5 0 -7 5 -4 10 3 6 8 10
11 10 2 0 4 -4 4 -10z m-50 -10 c0 -5 -7 -10 -15 -10 -8 0 -15 5 -15 10 0 6 7
10 15 10 8 0 15 -4 15 -10z m190 3 c-1 -17 -28 -44 -35 -34 -3 6 0 17 7 25 14
16 28 21 28 9z m290 -27 c0 -11 -19 -15 -25 -6 -3 5 1 10 9 10 9 0 16 -2 16
-4z m-522 -34 c2 -7 -3 -12 -12 -12 -9 0 -16 7 -16 16 0 17 22 14 28 -4z m166
-1 c3 -4 3 -11 0 -14 -8 -8 -34 3 -34 14 0 11 27 12 34 0z m-284 -21 c0 -5 -4
-10 -10 -10 -5 0 -10 5 -10 10 0 6 5 10 10 10 6 0 10 -4 10 -10z m277 -35 c8
-9 12 -22 9 -30 -6 -17 -26 -20 -26 -5 0 6 -7 10 -15 10 -17 0 -18 2 -9 24 8
20 21 20 41 1z m531 -36 c-2 -6 -8 -10 -13 -10 -5 0 -11 4 -13 10 -2 6 4 11
13 11 9 0 15 -5 13 -11z m-63 -49 c4 -6 -9 -10 -32 -10 -28 0 -34 3 -23 10 20
13 47 13 55 0z m-570 -10 c3 -5 1 -10 -4 -10 -6 0 -11 5 -11 10 0 6 2 10 4 10
3 0 8 -4 11 -10z m50 0 c3 -5 -1 -10 -10 -10 -9 0 -13 5 -10 10 3 6 8 10 10
10 2 0 7 -4 10 -10z m495 -50 c0 -5 -7 -10 -15 -10 -8 0 -15 5 -15 10 0 6 7
10 15 10 8 0 15 -4 15 -10z m-640 -54 c0 -3 -4 -8 -10 -11 -5 -3 -10 -1 -10 4
0 6 5 11 10 11 6 0 10 -2 10 -4z m149 -20 c9 -10 9 -16 1 -21 -13 -8 -42 14
-34 26 8 13 20 11 33 -5z m-244 -16 c-3 -5 -10 -10 -16 -10 -5 0 -9 5 -9 10 0
6 7 10 16 10 8 0 12 -4 9 -10z m-230 -30 c3 -5 1 -10 -4 -10 -6 0 -11 5 -11
10 0 6 2 10 4 10 3 0 8 -4 11 -10z m1049 -57 c3 -8 1 -11 -4 -8 -11 7 -13 -5
-10 -44 2 -20 -2 -23 -22 -18 -12 4 -29 7 -35 7 -20 0 -15 28 6 41 10 7 16 20
14 29 -4 14 0 17 20 13 14 -3 28 -12 31 -20z m-854 -89 c0 -2 -7 -4 -15 -4 -8
0 -15 4 -15 10 0 5 7 7 15 4 8 -4 15 -8 15 -10z m564 1 c-4 -8 -13 -15 -21
-15 -13 0 -13 3 -3 15 7 8 16 15 21 15 5 0 6 -7 3 -15z m996 5 c0 -5 -7 -10
-15 -10 -8 0 -15 5 -15 10 0 6 7 10 15 10 8 0 15 -4 15 -10z m-1330 -15 c7 -4
16 -2 20 5 7 11 14 11 38 1 17 -7 36 -10 42 -6 7 4 14 -2 17 -14 7 -28 19 -27
27 4 7 27 36 35 36 10 0 -8 -7 -15 -15 -15 -20 0 -19 -24 1 -44 17 -18 20 -18
51 -10 14 4 20 11 16 22 -4 10 -2 13 6 8 6 -4 9 -16 6 -27 -4 -13 -1 -21 12
-26 10 -4 23 -13 29 -22 10 -12 14 -10 29 12 13 20 26 27 49 27 23 0 41 9 62
30 16 16 36 29 44 29 21 0 55 -27 46 -36 -4 -4 -10 -2 -14 4 -5 8 -12 8 -25
-2 -16 -12 -12 -16 42 -41 46 -22 62 -35 66 -54 7 -34 64 -58 81 -35 20 27 43
17 50 -22 10 -53 8 -107 -5 -111 -6 -2 -11 -10 -11 -18 0 -7 -7 -31 -16 -53
-13 -32 -22 -41 -55 -49 -26 -7 -39 -7 -39 0 0 6 -14 8 -34 4 -35 -7 -92 12
-128 43 -16 12 -23 12 -58 -2 -28 -11 -40 -12 -40 -4 0 7 -7 4 -14 -5 -7 -10
-20 -18 -29 -18 -23 0 -31 -18 -16 -36 10 -12 10 -17 0 -27 -10 -9 -18 -6 -36
15 -20 23 -24 25 -22 9 1 -11 5 -17 9 -15 4 3 8 -7 8 -21 0 -15 -4 -24 -10
-20 -5 3 -10 0 -10 -7 0 -7 -9 -18 -19 -23 -11 -6 -35 -18 -54 -28 -45 -23
-64 -63 -42 -87 17 -19 19 -30 6 -30 -5 0 -13 9 -16 20 -3 11 -13 20 -20 20
-12 0 -12 -4 0 -27 14 -27 11 -48 -6 -38 -5 4 -9 1 -9 -5 0 -6 -5 -8 -10 -5
-6 3 -7 17 -4 31 4 14 2 24 -5 24 -6 0 -11 -7 -11 -16 0 -10 -6 -14 -14 -11
-8 3 -17 -1 -20 -9 -3 -8 -1 -12 4 -9 15 9 51 -30 45 -48 -4 -10 1 -17 14 -22
11 -3 25 -22 32 -43 11 -33 13 -34 20 -15 7 19 15 22 54 19 25 -1 48 1 50 4 3
4 15 5 28 3 14 -3 29 2 36 11 8 9 22 16 32 16 11 0 19 7 19 15 0 8 -4 15 -10
15 -5 0 -10 -3 -10 -7 0 -5 -13 -8 -30 -9 l-29 -1 30 27 c16 16 29 33 29 39 0
6 8 7 22 2 13 -5 31 -3 44 4 30 15 84 7 84 -12 0 -10 -6 -12 -22 -7 -21 6 -21
5 -9 -10 13 -15 12 -18 -7 -23 -12 -3 -25 -16 -28 -29 -3 -13 -11 -24 -16 -24
-5 0 -2 -7 6 -16 19 -19 20 -31 4 -37 -9 -3 -4 -13 15 -32 15 -15 28 -36 29
-46 0 -11 1 -23 2 -29 1 -5 -3 -11 -9 -12 -13 -3 -35 -46 -35 -69 0 -11 -5
-19 -12 -19 -6 0 -1 -11 11 -24 15 -16 19 -26 11 -31 -6 -4 -8 -15 -5 -26 4
-12 1 -21 -9 -25 -10 -4 -18 -25 -22 -56 -4 -30 -11 -47 -18 -45 -86 32 -87
32 -97 14 -6 -9 -16 -17 -23 -17 -8 0 -21 -11 -30 -25 -15 -22 -22 -25 -59
-20 -23 3 -36 2 -29 -1 31 -15 -5 -50 -46 -44 -8 1 -20 -7 -27 -17 -11 -15
-17 -16 -34 -6 -15 10 -22 9 -31 -2 -10 -12 -9 -16 5 -21 16 -6 16 -8 1 -16
-24 -13 -19 -35 9 -42 14 -4 25 -13 25 -21 0 -8 7 -15 16 -15 14 0 14 -3 4
-15 -10 -12 -10 -18 0 -30 16 -19 5 -32 -13 -17 -8 7 -16 10 -19 7 -3 -3 -13
4 -23 15 -10 11 -24 20 -30 20 -7 0 -15 7 -19 15 -3 9 0 15 10 15 11 0 7 9
-13 35 -25 31 -62 47 -64 28 -5 -50 -3 -63 10 -63 8 0 11 -3 8 -7 -4 -3 -24 1
-44 10 -59 24 -100 29 -107 11 -4 -12 -16 -13 -55 -8 -31 4 -51 2 -55 -5 -10
-15 -56 -14 -56 2 0 7 9 18 20 25 17 10 19 16 9 33 -8 15 -8 24 0 32 6 6 11
18 11 27 0 13 -2 13 -9 1 -10 -15 -15 -14 -79 23 -35 20 -72 58 -66 67 9 15
41 10 48 -6 3 -8 15 -15 26 -15 13 0 20 -7 20 -20 0 -23 18 -26 45 -6 17 12
14 17 -43 79 -34 37 -62 71 -62 77 0 5 -7 10 -15 10 -17 0 -70 56 -70 73 0 7
-6 15 -14 18 -17 6 -22 58 -9 76 12 15 0 36 -14 27 -8 -5 -9 -1 -5 10 4 9 3
15 -2 12 -4 -3 -18 6 -31 19 -18 19 -20 27 -11 38 6 8 9 22 5 31 -4 12 0 16
15 16 24 0 27 10 9 28 -9 9 -9 12 0 12 7 0 12 -5 12 -10 0 -7 7 -7 20 0 11 5
29 15 40 20 16 8 20 7 20 -5 0 -11 5 -10 21 6 17 17 20 29 15 59 -5 33 -3 40
20 54 22 15 29 15 55 4 16 -7 29 -19 29 -25 0 -19 47 -16 70 4 11 10 20 25 20
35 0 10 4 18 9 18 5 0 12 7 15 16 4 12 1 14 -14 9 -26 -8 -26 11 -1 25 13 6
17 17 14 30 -6 21 -23 28 -23 8 0 -6 -3 -8 -7 -4 -5 4 -8 13 -8 18 0 6 -6 13
-13 16 -7 2 -10 -2 -6 -11 7 -19 -12 -32 -22 -15 -15 24 -12 97 3 103 10 3 13
13 10 25 -4 14 2 26 19 37 17 11 23 21 19 34 -4 13 -1 19 9 19 9 0 13 -6 10
-14 -4 -11 4 -17 29 -21 33 -7 35 -9 39 -51 2 -25 -1 -49 -6 -54 -14 -14 -39
-12 -33 3 3 8 -7 12 -29 13 -21 1 -35 -4 -39 -14 -4 -12 -3 -12 9 -3 11 10 16
9 23 -2 9 -15 69 -47 90 -47 7 0 13 8 13 18 1 16 1 16 14 0 18 -25 45 -22 55
5 7 19 3 25 -26 42 -18 10 -32 24 -29 31 2 6 -5 19 -15 28 -19 16 -19 17 -2
41 10 13 21 25 26 25 11 0 8 30 -4 30 -6 0 -9 5 -7 12 3 7 25 12 52 13 52 1
76 20 76 61 0 12 10 29 23 38 l22 17 -28 -4 c-19 -3 -31 1 -37 14 -13 23 5 36
26 18 20 -17 29 -4 16 25 -6 13 -8 27 -4 30 3 4 5 27 3 51 l-2 44 34 -3 c19
-2 40 -6 47 -11z m2100 -55 c0 -5 -5 -10 -11 -10 -5 0 -7 5 -4 10 3 6 8 10 11
10 2 0 4 -4 4 -10z m-1550 -21 c0 -5 -4 -9 -10 -9 -5 0 -10 7 -10 16 0 8 5 12
10 9 6 -3 10 -10 10 -16z m-700 -79 c0 -5 -2 -10 -4 -10 -3 0 -8 5 -11 10 -3
6 -1 10 4 10 6 0 11 -4 11 -10z m-60 -10 c0 -5 -7 -10 -16 -10 -8 0 -12 5 -9
10 3 6 10 10 16 10 5 0 9 -4 9 -10z m69 -77 c2 -20 -26 -15 -32 6 -2 10 0 27
6 37 10 18 11 17 18 -6 4 -14 7 -31 8 -37z m-119 -13 c0 -5 -5 -10 -11 -10 -5
0 -7 5 -4 10 3 6 8 10 11 10 2 0 4 -4 4 -10z m1470 -30 c0 -5 -4 -10 -10 -10
-5 0 -10 5 -10 10 0 6 5 10 10 10 6 0 10 -4 10 -10z m-1515 -10 c3 -5 -1 -10
-9 -10 -9 0 -16 5 -16 10 0 6 4 10 9 10 6 0 13 -4 16 -10z m1375 -20 c0 -5 -7
-10 -16 -10 -8 0 -12 5 -9 10 3 6 10 10 16 10 5 0 9 -4 9 -10z m653 -70 c8 0
8 -3 0 -11 -13 -13 -43 -5 -43 12 0 6 7 8 16 5 9 -3 21 -6 27 -6z m-1203 -120
c0 -5 -2 -10 -4 -10 -3 0 -8 5 -11 10 -3 6 -1 10 4 10 6 0 11 -4 11 -10z
m-220 -10 c0 -5 -4 -10 -10 -10 -5 0 -10 5 -10 10 0 6 5 10 10 10 6 0 10 -4
10 -10z m930 -16 c0 -6 -33 -64 -36 -64 -5 0 -62 40 -87 60 -4 4 22 6 58 6 36
0 65 -1 65 -2z m-985 -14 c3 -6 -1 -7 -9 -4 -18 7 -21 14 -7 14 6 0 13 -4 16
-10z m105 0 c-19 -13 -30 -13 -30 0 0 6 10 10 23 10 18 0 19 -2 7 -10z m-140
-31 c0 -5 -4 -9 -10 -9 -5 0 -10 7 -10 16 0 8 5 12 10 9 6 -3 10 -10 10 -16z
m150 -10 c0 -18 -4 -20 -26 -15 -23 6 -26 4 -21 -13 5 -20 -3 -28 -16 -15 -9
10 14 53 32 57 29 8 31 7 31 -14z m720 11 c0 -5 -7 -10 -16 -10 -8 0 -12 5 -9
10 3 6 10 10 16 10 5 0 9 -4 9 -10z m-1645 -9 c3 -5 1 -12 -5 -16 -5 -3 -10 1
-10 9 0 18 6 21 15 7z m740 -11 c-3 -5 -12 -7 -20 -3 -21 7 -19 13 6 13 11 0
18 -4 14 -10z m-680 -17 c18 -14 18 -15 2 -9 -10 3 -23 6 -28 6 -5 0 -9 5 -9
10 0 14 12 12 35 -7z m1590 -23 c0 -7 -6 -15 -12 -17 -8 -3 -13 4 -13 17 0 13
5 20 13 18 6 -3 12 -11 12 -18z m-635 0 c0 -5 -4 -10 -10 -10 -5 0 -10 5 -10
10 0 6 5 10 10 10 6 0 10 -4 10 -10z m500 -10 c0 -5 -4 -10 -10 -10 -5 0 -10
5 -10 10 0 6 5 10 10 10 6 0 10 -4 10 -10z m-1330 -9 c0 -14 -18 -23 -30 -16
-6 4 -8 11 -5 16 8 12 35 12 35 0z m-200 -67 c0 -8 -5 -12 -10 -9 -6 4 -8 11
-5 16 9 14 15 11 15 -7z m673 -24 c-6 -22 -18 -26 -28 -10 -8 13 14 42 25 35
5 -3 6 -14 3 -25z m-836 4 c-3 -3 -12 -4 -19 -1 -8 3 -5 6 6 6 11 1 17 -2 13
-5z m1163 -69 c0 -8 -4 -15 -10 -15 -5 0 -10 7 -10 15 0 8 5 15 10 15 6 0 10
-7 10 -15z m355 -65 c-3 -5 -10 -10 -16 -10 -5 0 -9 5 -9 10 0 6 7 10 16 10 8
0 12 -4 9 -10z m1272 -46 c-3 -3 -12 -4 -19 -1 -8 3 -5 6 6 6 11 1 17 -2 13
-5z m-1107 -24 c0 -5 -5 -10 -11 -10 -5 0 -7 5 -4 10 3 6 8 10 11 10 2 0 4 -4
4 -10z m-62 -49 c2 -23 0 -31 -8 -26 -6 4 -20 -1 -30 -10 -10 -9 -23 -14 -29
-11 -13 9 -3 36 14 36 7 0 16 12 19 26 9 35 30 25 34 -15z m767 -21 c3 -5 1
-10 -4 -10 -6 0 -11 5 -11 10 0 6 2 10 4 10 3 0 8 -4 11 -10z m-217 -38 c2 -7
-3 -12 -12 -12 -9 0 -16 7 -16 16 0 17 22 14 28 -4z m692 -12 c0 -5 -2 -10 -4
-10 -3 0 -8 5 -11 10 -3 6 -1 10 4 10 6 0 11 -4 11 -10z m-684 -32 c16 -18 16
-20 2 -15 -9 3 -19 0 -22 -9 -3 -8 -17 -14 -31 -14 -26 0 -33 -14 -14 -25 5
-4 19 1 29 10 17 16 60 14 60 -3 0 -11 -52 -32 -63 -25 -6 3 -7 2 -4 -3 3 -6
1 -16 -4 -24 -8 -13 -11 -13 -19 2 -12 20 -41 13 -33 -8 3 -9 -2 -14 -16 -14
-27 0 -27 20 0 54 11 14 18 30 14 35 -11 19 17 48 41 43 14 -2 24 0 24 7 0 17
15 13 36 -11z m-722 -7 c7 -11 -22 -23 -35 -15 -5 3 -7 10 -4 15 8 12 32 12
39 0z m871 -25 c11 11 27 19 35 19 8 -1 21 -3 28 -3 22 -3 7 -27 -16 -27 -12
0 -21 -4 -21 -10 0 -5 7 -9 15 -9 8 1 13 -5 12 -14 -2 -9 5 -18 16 -20 13 -3
16 0 10 10 -6 10 -5 10 9 -1 21 -17 22 -31 2 -31 -9 0 -27 -12 -40 -26 -19
-21 -27 -24 -44 -15 -16 9 -22 7 -33 -8 -13 -18 -78 -40 -78 -25 0 8 52 54 63
54 17 0 5 21 -18 32 -27 12 -36 52 -10 42 10 -4 15 0 15 13 0 10 6 25 13 32
10 10 13 8 17 -10 6 -23 6 -23 25 -3z m-275 -31 c0 -8 -7 -15 -15 -15 -8 0
-15 7 -15 15 0 8 7 15 15 15 8 0 15 -7 15 -15z m-1910 -19 c0 -3 -4 -8 -10
-11 -5 -3 -10 -1 -10 4 0 6 5 11 10 11 6 0 10 -2 10 -4z m2040 -47 c0 -11 -27
-12 -34 0 -3 4 -3 11 0 14 8 8 34 -3 34 -14z m-170 -10 c0 -6 -4 -7 -10 -4 -5
3 -10 11 -10 16 0 6 5 7 10 4 6 -3 10 -11 10 -16z m-40 -3 c0 -7 -11 -16 -25
-18 -26 -5 -36 16 -12 25 23 10 37 7 37 -7z m-290 -21 c0 -13 -35 -75 -42 -75
-5 0 -7 -4 -3 -10 6 -10 -73 -35 -82 -26 -10 9 6 36 24 42 37 12 63 28 63 39
0 13 20 35 32 35 4 0 8 -2 8 -5z m-260 -14 c0 -5 -9 -7 -20 -4 -11 3 -20 7
-20 9 0 2 9 4 20 4 11 0 20 -4 20 -9z m-220 -66 c0 -9 -6 -12 -15 -9 -8 4 -15
10 -15 15 0 5 7 9 15 9 8 0 15 -7 15 -15z m-350 -41 c0 -9 -5 -14 -12 -12 -18
6 -21 28 -4 28 9 0 16 -7 16 -16z m-44 -19 c-3 -8 4 -24 16 -34 12 -12 18 -26
15 -35 -9 -22 -17 -20 -57 14 l-35 29 28 1 c16 0 26 4 22 10 -3 6 -3 15 0 20
10 15 18 12 11 -5z m-511 -5 c-3 -5 -11 -10 -16 -10 -6 0 -7 5 -4 10 3 6 11
10 16 10 6 0 7 -4 4 -10z m1393 -38 c5 -15 -71 -53 -86 -43 -9 6 -8 12 5 23
42 36 73 44 81 20z m-1418 -31 c0 -6 -5 -13 -10 -16 -6 -4 -8 -11 -5 -16 4 -5
1 -9 -4 -9 -12 0 -15 33 -4 43 9 10 23 8 23 -2z m370 -11 c0 -5 -5 -10 -11
-10 -5 0 -7 5 -4 10 3 6 8 10 11 10 2 0 4 -4 4 -10z m165 -18 c-8 -8 -25 10
-19 20 4 6 9 5 15 -3 4 -7 6 -15 4 -17z m1875 18 c0 -5 -4 -10 -10 -10 -5 0
-10 5 -10 10 0 6 5 10 10 10 6 0 10 -4 10 -10z m-2150 -36 c0 -11 -5 -14 -16
-10 -9 3 -18 6 -20 6 -3 0 -2 5 1 10 10 16 35 12 35 -6z m1810 -8 c0 -2 -7 -7
-16 -10 -8 -3 -12 -2 -9 4 6 10 25 14 25 6z m-41 -40 c10 -12 8 -17 -8 -25
-16 -9 -22 -8 -30 6 -9 16 -12 16 -21 3 -11 -17 -13 -10 -4 14 8 20 48 21 63
2z m-236 -31 c1 -5 -6 -11 -15 -13 -11 -2 -18 3 -18 13 0 17 30 18 33 0z m22
-32 c-9 -8 -19 -13 -22 -9 -9 8 18 37 28 30 5 -3 2 -12 -6 -21z m-1015 13 c0
-2 -7 -6 -15 -10 -8 -3 -15 -1 -15 4 0 6 7 10 15 10 8 0 15 -2 15 -4z m-690
-67 c0 -20 -15 -26 -25 -10 -3 6 -15 8 -26 6 -20 -4 -21 -3 -5 14 21 23 56 16
56 -10z m1735 21 c-3 -5 -12 -10 -18 -10 -7 0 -6 4 3 10 19 12 23 12 15 0z
m-904 -33 c-13 -13 -26 -3 -16 12 3 6 11 8 17 5 6 -4 6 -10 -1 -17z m2059 -62
c0 -8 -9 -15 -20 -15 -20 0 -26 11 -13 23 12 13 33 7 33 -8z m-2720 -15 c0 -5
-7 -10 -15 -10 -8 0 -15 5 -15 10 0 6 7 10 15 10 8 0 15 -4 15 -10z m2940 -18
c0 -13 -12 -22 -22 -16 -10 6 -1 24 13 24 5 0 9 -4 9 -8z m-170 -82 c0 -23
-15 -27 -24 -5 -3 8 -13 15 -22 15 -13 0 -14 3 -4 15 16 19 50 2 50 -25z m73
33 c-7 -2 -19 -2 -25 0 -7 3 -2 5 12 5 14 0 19 -2 13 -5z m-283 -48 c0 -8 -4
-15 -10 -15 -5 0 -10 7 -10 15 0 8 5 15 10 15 6 0 10 -7 10 -15z m287 -29 c-4
-9 -11 -16 -17 -16 -17 0 -24 31 -9 41 18 11 34 -5 26 -25z m-446 -19 c-7 -7
-12 -5 -17 7 -4 11 -1 21 7 27 17 11 26 -18 10 -34z m-3171 -16 c0 -6 -4 -13
-10 -16 -5 -3 -10 1 -10 9 0 9 5 16 10 16 6 0 10 -4 10 -9z m63 -11 c3 -11 1
-20 -4 -20 -5 0 -9 9 -9 20 0 11 2 20 4 20 2 0 6 -9 9 -20z m122 10 c3 -5 1
-10 -4 -10 -6 0 -11 5 -11 10 0 6 2 10 4 10 3 0 8 -4 11 -10z m325 0 c0 -5 -4
-10 -10 -10 -5 0 -10 5 -10 10 0 6 5 10 10 10 6 0 10 -4 10 -10z m2630 -20 c0
-5 -4 -10 -10 -10 -5 0 -10 5 -10 10 0 6 5 10 10 10 6 0 10 -4 10 -10z m-2900
-9 c0 -17 -18 -21 -24 -6 -3 9 0 15 9 15 8 0 15 -4 15 -9z m2470 -56 c10 -12
9 -16 -4 -21 -18 -7 -49 13 -40 27 8 14 30 11 44 -6z m40 -1 c0 -8 -4 -12 -10
-9 -5 3 -10 10 -10 16 0 5 5 9 10 9 6 0 10 -7 10 -16z m77 -20 c-3 -3 -12 -4
-19 -1 -8 3 -5 6 6 6 11 1 17 -2 13 -5z m638 -24 c0 -7 -10 -16 -22 -21 -14
-5 -23 -5 -23 1 0 6 5 10 10 10 6 0 10 7 10 16 0 9 6 14 13 12 6 -3 12 -11 12
-18z m-725 -24 c0 -3 -4 -8 -10 -11 -5 -3 -10 -1 -10 4 0 6 5 11 10 11 6 0 10
-2 10 -4z m780 -4 c0 -5 -7 -9 -15 -9 -8 0 -15 4 -15 9 0 4 7 8 15 8 8 0 15
-4 15 -8z m-50 -12 c0 -5 -4 -10 -10 -10 -5 0 -10 5 -10 10 0 6 5 10 10 10 6
0 10 -4 10 -10z m84 -21 c-30 -12 -37 -10 -24 5 6 8 19 12 27 9 14 -6 14 -8
-3 -14z m26 -29 c0 -5 -5 -10 -11 -10 -5 0 -8 -4 -5 -9 5 -8 -25 -21 -49 -21
-11 0 46 49 58 50 4 0 7 -4 7 -10z m-3730 -164 c0 -3 -9 2 -20 11 -11 10 -20
24 -20 32 0 8 8 3 20 -12 11 -14 20 -28 20 -31z m215 2 c4 -10 1 -26 -6 -34
-12 -14 -14 -14 -26 2 -7 10 -13 28 -13 40 0 17 4 21 20 17 10 -3 22 -14 25
-25z m69 -21 c-5 -14 -10 -15 -27 -5 -22 12 -22 12 3 18 30 8 32 7 24 -13z
m2806 -97 c-6 -11 -16 -20 -22 -20 -6 0 -3 9 7 20 10 11 20 20 22 20 2 0 -1
-9 -7 -20z m-2965 0 c3 -5 2 -10 -4 -10 -5 0 -13 5 -16 10 -3 6 -2 10 4 10 5
0 13 -4 16 -10z m2907 -52 c-7 -7 -12 -8 -12 -2 0 14 12 26 19 19 2 -3 -1 -11
-7 -17z m-2537 -57 c3 -5 1 -12 -5 -16 -6 -4 -8 -10 -5 -15 3 -4 -4 -6 -15 -3
-26 7 -27 43 -1 43 11 0 22 -4 26 -9z m3000 -141 c3 -5 1 -10 -4 -10 -6 0 -11
5 -11 10 0 6 2 10 4 10 3 0 8 -4 11 -10z"/>
<path d="M1260 3344 c0 -13 2 -24 4 -24 2 0 11 -3 20 -6 12 -4 16 0 16 15 0
13 6 21 17 21 28 0 3 15 -28 16 -24 1 -29 -2 -29 -22z"/>
<path d="M1896 3195 c4 -8 10 -15 15 -15 4 0 6 7 3 15 -4 8 -10 15 -15 15 -4
0 -6 -7 -3 -15z"/>
<path d="M1276 3135 c-3 -8 -1 -15 3 -15 5 0 11 7 15 15 3 8 1 15 -3 15 -5 0
-11 -7 -15 -15z"/>
<path d="M920 2816 c0 -9 5 -16 10 -16 6 0 10 4 10 9 0 6 -4 13 -10 16 -5 3
-10 -1 -10 -9z"/>
<path d="M690 2689 c0 -5 5 -7 10 -4 6 3 10 8 10 11 0 2 -4 4 -10 4 -5 0 -10
-5 -10 -11z"/>
<path d="M1585 2690 c4 -6 11 -8 16 -5 14 9 11 15 -7 15 -8 0 -12 -5 -9 -10z"/>
<path d="M1585 2660 c-3 -5 -1 -10 4 -10 6 0 11 5 11 10 0 6 -2 10 -4 10 -3 0
-8 -4 -11 -10z"/>
<path d="M1545 2610 c3 -5 8 -10 11 -10 2 0 4 5 4 10 0 6 -5 10 -11 10 -5 0
-7 -4 -4 -10z"/>
<path d="M927 2133 c-4 -3 -7 -17 -7 -30 0 -26 -3 -27 -32 -12 -29 16 -40 -2
-22 -36 19 -36 39 -49 82 -50 27 -2 32 2 32 22 0 25 18 30 51 13 13 -8 19 -7
19 0 0 18 -31 60 -45 60 -7 0 -24 9 -38 20 -28 22 -31 23 -40 13z"/>
<path d="M1130 1989 c0 -5 5 -7 10 -4 6 3 10 8 10 11 0 2 -4 4 -10 4 -5 0 -10
-5 -10 -11z"/>
<path d="M2578 2313 c7 -3 16 -2 19 1 4 3 -2 6 -13 5 -11 0 -14 -3 -6 -6z"/>
<path d="M1441 3714 c0 -11 3 -14 6 -6 3 7 2 16 -1 19 -3 4 -6 -2 -5 -13z"/>
<path d="M3181 2371 c-23 -6 -42 -31 -24 -31 15 0 63 25 63 33 0 8 -5 8 -39
-2z"/>
<path d="M3160 2209 c0 -5 5 -7 10 -4 6 3 10 8 10 11 0 2 -4 4 -10 4 -5 0 -10
-5 -10 -11z"/>
<path d="M3070 2070 c-8 -5 -11 -12 -8 -16 10 -9 38 3 38 16 0 12 -10 13 -30
0z"/>
<path d="M3117 2073 c-4 -3 -7 -11 -7 -17 0 -6 5 -5 12 2 6 6 9 14 7 17 -3 3
-9 2 -12 -2z"/>
<path d="M2940 2048 c-38 -10 -68 -34 -57 -44 9 -9 53 4 71 21 8 8 22 15 31
15 9 0 13 5 10 10 -7 12 -8 11 -55 -2z"/>
<path d="M3035 2039 c-4 -6 -5 -12 -2 -15 2 -3 7 2 10 11 7 17 1 20 -8 4z"/>
<path d="M2970 2020 c-8 -5 -11 -12 -8 -16 10 -9 38 3 38 16 0 12 -10 13 -30
0z"/>
<path d="M2580 1970 c-12 -8 -11 -10 8 -10 12 0 22 5 22 10 0 13 -11 13 -30 0z"/>
<path d="M2555 1910 c-10 -17 12 -37 25 -24 8 8 6 15 -4 23 -10 9 -16 9 -21 1z"/>
<path d="M1015 1800 c4 -6 11 -8 16 -5 5 4 9 1 9 -4 0 -6 7 -11 15 -11 23 0
18 17 -7 24 -33 8 -40 7 -33 -4z"/>
<path d="M2355 1720 c3 -5 8 -10 11 -10 2 0 4 5 4 10 0 6 -5 10 -11 10 -5 0
-7 -4 -4 -10z"/>
<path d="M2023 1533 c9 -2 23 -2 30 0 6 3 -1 5 -18 5 -16 0 -22 -2 -12 -5z"/>
<path d="M979 1485 c-1 -5 -1 -14 0 -18 1 -4 -12 -14 -29 -21 -33 -14 -30 -26
7 -26 13 0 23 -3 23 -8 0 -4 24 -7 53 -7 28 0 59 -3 68 -6 8 -4 21 -4 29 1 12
7 11 10 -5 15 -11 4 -30 11 -43 16 -13 5 -34 9 -47 9 -14 0 -25 4 -25 8 0 13
-29 48 -31 37z"/>
<path d="M1450 1458 c-19 -5 -45 -22 -57 -36 -21 -26 -24 -27 -120 -25 -91 1
-96 0 -75 -14 32 -22 27 -31 -15 -35 -31 -2 -39 -7 -41 -25 -3 -23 -3 -23 30
-6 18 9 41 20 50 25 13 6 27 -1 55 -29 41 -40 117 -93 134 -93 6 0 -6 -19 -25
-42 -20 -23 -36 -52 -36 -66 0 -13 16 -46 36 -74 47 -64 50 -122 11 -193 -48
-86 -51 -134 -18 -319 17 -100 20 -135 12 -153 -26 -56 -31 -112 -20 -220 6
-59 13 -110 15 -112 12 -13 33 27 39 76 10 84 10 83 77 83 56 0 63 -3 93 -34
30 -32 34 -34 54 -20 11 8 21 22 21 31 0 13 3 13 15 3 8 -7 15 -21 15 -31 0
-11 7 -19 15 -19 8 0 15 7 15 15 0 21 19 27 55 16 l30 -9 -32 -1 c-18 -1 -33
-6 -33 -12 0 -13 78 -8 142 9 27 7 35 7 32 -3 -3 -6 -10 -12 -17 -13 -45 -5
-120 -31 -128 -44 -11 -20 -68 -50 -80 -42 -5 3 -23 -6 -40 -20 l-31 -26 40 0
c29 0 49 8 77 30 21 17 46 30 56 30 16 0 87 36 99 50 3 3 23 19 45 35 22 16
46 36 53 44 16 20 15 70 -3 105 -8 15 -15 35 -15 42 0 8 -9 23 -20 34 -11 11
-21 30 -24 42 -2 13 -10 50 -18 83 l-13 60 -3 -47 c-3 -53 -17 -62 -32 -22
-13 33 -13 184 0 184 10 0 17 -24 23 -80 2 -19 4 -8 5 25 0 33 -6 92 -14 130
l-14 70 4 -58 c1 -32 -1 -60 -6 -63 -12 -8 -16 11 -22 111 -5 84 -4 87 8 50
l13 -40 -4 60 c-2 33 -5 80 -6 104 -3 53 -29 78 -52 47 -8 -10 -12 -32 -10
-50 4 -30 -15 -207 -34 -316 -5 -30 -9 -73 -9 -95 0 -38 1 -38 8 10 4 28 10
60 14 72 8 24 43 40 57 26 15 -15 24 -213 10 -213 -6 0 -31 -21 -56 -47 l-44
-48 4 75 c4 72 4 73 -6 25 -5 -27 -12 -65 -15 -82 -4 -25 -11 -34 -30 -39 -46
-12 -49 3 -50 215 -2 152 -6 208 -18 245 -16 46 -22 147 -10 159 4 3 16 -1 29
-9 21 -14 23 -13 29 8 5 14 9 18 13 11 2 -7 11 -13 19 -13 8 0 14 -5 14 -10 0
-15 36 6 44 25 3 9 2 14 -2 11 -4 -2 -16 3 -27 11 -20 15 -20 15 2 10 14 -3
28 2 39 14 22 24 10 37 -18 20 -36 -22 -76 -31 -87 -18 -13 16 -51 127 -51
150 0 11 -13 23 -34 32 -19 8 -41 21 -49 30 -14 14 -13 18 8 39 13 13 29 42
35 65 10 37 9 45 -10 71 -23 32 -59 61 -75 59 -5 0 -26 -5 -45 -11z m379 -700
c1 -49 -2 -58 -20 -63 -11 -4 -22 -5 -24 -3 -4 4 13 152 22 188 5 21 7 18 14
-20 4 -25 8 -71 8 -102z m-309 -158 c0 -21 27 -108 54 -172 19 -45 20 -107 3
-129 -7 -10 -29 -26 -50 -38 -30 -17 -41 -19 -62 -9 -26 12 -26 11 -4 103 15
64 29 166 29 211 0 22 3 44 7 47 12 13 23 7 23 -13z"/>
<path d="M3608 1442 c7 -5 10 -16 7 -25 -4 -9 -2 -24 4 -34 9 -16 10 -15 11 9
0 14 3 33 6 42 5 12 0 16 -17 16 -16 0 -20 -3 -11 -8z"/>
<path d="M65 1430 c3 -5 8 -10 11 -10 2 0 4 5 4 10 0 6 -5 10 -11 10 -5 0 -7
-4 -4 -10z"/>
<path d="M1848 1412 c-31 -18 -36 -32 -14 -32 16 0 46 26 46 41 0 12 0 12 -32
-9z"/>
<path d="M2115 1410 c4 -6 11 -8 16 -5 14 9 11 15 -7 15 -8 0 -12 -5 -9 -10z"/>
<path d="M270 1400 c0 -5 7 -10 15 -10 8 0 15 5 15 10 0 6 -7 10 -15 10 -8 0
-15 -4 -15 -10z"/>
<path d="M2335 1385 c-5 -2 -22 -6 -37 -9 -16 -4 -28 -11 -28 -16 0 -15 43
-12 66 4 19 14 18 26 -1 21z"/>
<path d="M2061 1351 c-7 -5 -10 -14 -7 -20 10 -16 51 -14 66 4 10 12 10 15 -3
15 -8 0 -21 2 -29 5 -7 3 -19 1 -27 -4z"/>
<path d="M2172 1348 c-29 -29 -2 -37 42 -14 22 11 24 15 11 20 -25 9 -40 7
-53 -6z"/>
<path d="M2295 1296 c-16 -6 -25 -15 -20 -18 27 -15 128 -31 204 -32 73 -1 92
3 126 22 l40 23 -75 -5 c-47 -3 -101 0 -145 9 -83 18 -91 18 -130 1z"/>
<path d="M3050 1249 c0 -5 5 -7 10 -4 6 3 10 8 10 11 0 2 -4 4 -10 4 -5 0 -10
-5 -10 -11z"/>
<path d="M2245 1205 c-22 -8 -42 -15 -45 -15 -3 0 2 -5 10 -10 22 -15 63 -12
88 6 47 33 17 44 -53 19z"/>
<path d="M1797 1139 c-9 -6 -17 -15 -17 -22 0 -9 2 -9 8 -1 4 7 16 13 27 16
11 2 15 6 10 10 -6 3 -18 2 -28 -3z"/>
<path d="M1860 1120 c0 -5 5 -10 10 -10 6 0 10 5 10 10 0 6 -4 10 -10 10 -5 0
-10 -4 -10 -10z"/>
<path d="M2810 936 c0 -9 7 -16 16 -16 17 0 14 22 -4 28 -7 2 -12 -3 -12 -12z"/>
<path d="M3966 735 c-11 -8 -26 -15 -34 -15 -8 0 -45 -14 -81 -31 -79 -37
-137 -59 -160 -59 -12 0 -13 2 -3 9 11 7 10 10 -3 15 -24 9 -55 7 -55 -3 0
-14 -44 -21 -52 -8 -6 9 -13 5 -27 -12 -12 -15 -23 -21 -31 -16 -9 5 -11 4 -6
-4 5 -7 -6 -17 -28 -26 -20 -9 -36 -21 -36 -28 0 -9 -3 -8 -9 1 -11 18 -41 18
-126 0 -119 -26 -145 -30 -145 -18 0 5 5 10 10 10 15 0 110 44 110 51 0 3 -24
2 -52 -1 -29 -4 -58 -5 -64 -3 -7 2 -42 -10 -78 -27 -74 -34 -80 -56 -12 -46
l41 6 -29 -15 c-15 -8 -36 -15 -45 -15 -12 0 -13 -2 -3 -9 13 -8 -63 -27 -138
-34 -19 -2 3 -4 50 -5 47 -1 113 5 148 13 34 8 77 15 95 15 18 -1 60 2 95 6
68 7 78 -2 38 -33 -24 -19 -24 -20 -4 -32 14 -8 17 -16 10 -23 -12 -12 -477
-18 -552 -6 -30 5 -71 11 -90 14 l-35 6 28 -29 c15 -16 27 -37 27 -46 0 -9 17
-25 39 -37 22 -11 42 -23 45 -28 7 -12 -74 -13 -96 -1 -27 15 -31 7 -12 -29
14 -30 18 -32 53 -26 29 5 51 0 94 -21 32 -14 57 -33 57 -41 0 -8 5 -14 10
-14 6 0 10 -6 10 -14 0 -9 7 -12 18 -9 21 5 72 -13 72 -26 0 -5 -7 -11 -16
-13 -13 -2 -10 -10 14 -40 l29 -37 482 -1 481 0 0 375 c0 206 -3 375 -7 375
-5 0 -17 -7 -27 -15z m-276 -266 c-11 -7 -5 -9 25 -8 86 5 107 1 100 -20 -3
-11 -1 -22 5 -26 7 -5 5 -11 -7 -20 -10 -7 -15 -17 -11 -21 5 -4 -9 -17 -30
-30 -54 -33 -183 -43 -237 -19 -30 13 -35 19 -22 22 25 6 16 27 -16 33 -24 5
-25 6 -9 25 20 24 64 45 95 46 12 0 38 6 57 13 19 8 42 14 50 15 13 1 13 0 0
-10z m-247 -49 c3 -11 2 -22 -1 -24 -12 -6 -82 6 -82 15 0 5 7 6 15 3 9 -4 15
0 15 10 0 24 46 21 53 -4z m-47 -45 c10 -8 14 -15 8 -15 -5 0 -19 7 -30 15
-10 8 -14 15 -8 15 5 0 19 -7 30 -15z"/>
<path d="M2709 716 c-3 -3 -38 -8 -79 -11 -95 -7 -131 -14 -149 -29 -18 -14
115 -25 172 -13 41 8 71 30 65 48 -2 6 -6 8 -9 5z"/>
<path d="M2304 641 c5 -8 56 -3 56 5 0 2 -14 4 -31 4 -16 0 -28 -4 -25 -9z"/>
<path d="M0 286 l0 -286 538 0 537 0 12 25 c18 41 6 65 -33 65 -24 0 -34 5
-34 15 0 18 -4 18 -47 6 -40 -11 -173 6 -173 23 0 6 -4 5 -9 -3 -8 -13 -15
-13 -53 0 -48 16 -206 19 -358 6 -86 -7 -93 -6 -76 8 11 8 33 17 50 19 17 3
76 11 131 18 100 14 100 14 70 30 -16 8 -54 21 -83 28 -58 13 -273 17 -312 5
-24 -7 -24 -7 -5 9 11 8 36 18 55 21 19 4 60 11 90 18 50 10 52 11 25 16 -56
11 -25 26 48 24 78 -3 189 -30 132 -33 -29 -1 -29 -2 10 -14 22 -7 43 -11 47
-9 4 2 60 8 125 13 106 7 173 24 173 41 0 11 -31 33 -48 35 -111 11 -324 45
-342 54 -8 4 -37 10 -64 14 l-48 6 23 -20 24 -20 -45 5 c-25 2 -72 7 -105 10
-33 3 -90 15 -127 26 -64 19 -68 22 -84 65 -9 24 -23 49 -30 55 -12 10 -14
-34 -14 -275z m560 4 c0 -5 -2 -10 -4 -10 -3 0 -8 5 -11 10 -3 6 -1 10 4 10 6
0 11 -4 11 -10z"/>
<path d="M234 481 c5 -8 3 -17 -5 -22 -10 -6 -8 -9 9 -9 26 0 28 12 5 31 -14
12 -15 12 -9 0z"/>
<path d="M2933 483 c9 -2 25 -2 35 0 9 3 1 5 -18 5 -19 0 -27 -2 -17 -5z"/>
<path d="M408 303 c7 -3 16 -2 19 1 4 3 -2 6 -13 5 -11 0 -14 -3 -6 -6z"/>
<path d="M2430 111 c0 -11 5 -32 10 -47 14 -36 -1 -49 -28 -24 -11 11 -24 20
-27 20 -4 0 -21 11 -40 25 -36 28 -71 29 -100 5 -10 -8 -20 -14 -23 -12 -2 2
-10 -5 -16 -16 -6 -11 -17 -29 -24 -41 -12 -20 -11 -21 47 -21 41 0 59 4 58
13 0 6 1 25 1 40 2 32 22 27 23 -6 0 -12 3 -16 6 -9 7 18 17 15 47 -13 l27
-25 266 2 265 3 -43 24 c-25 15 -63 26 -89 27 -58 3 -92 11 -100 24 -4 7 -18
8 -34 4 -19 -4 -25 -11 -21 -23 5 -16 1 -16 -47 -6 -67 15 -85 22 -125 52 -32
23 -33 23 -33 4z"/>
<path d="M1690 90 c-13 -8 -13 -10 2 -10 9 0 20 5 23 10 8 13 -5 13 -25 0z"/>
<path d="M2148 82 c-26 -31 -50 -74 -44 -79 5 -5 14 4 54 52 18 22 22 34 13
39 -4 3 -15 -2 -23 -12z"/>
<path d="M2012 40 c-26 -25 -29 -43 -5 -38 9 2 20 15 24 31 9 32 9 32 -19 7z"/>
<path d="M1869 23 c-13 -15 -12 -15 9 -4 23 12 28 21 13 21 -5 0 -15 -7 -22
-17z"/>
</g>
</svg>
